<?xml version="1.0" encoding="UTF-8"?>
<svg version="1.1" xmlns="http://www.w3.org/2000/svg" width="512" height="512">
<path d="M0 0 C2.08475226 -0.00543279 4.16950067 -0.01256188 6.25424194 -0.02124023 C11.86998953 -0.03933893 17.48544028 -0.03246203 23.10119247 -0.01972389 C29.00602713 -0.00952602 34.91083806 -0.01900828 40.81567383 -0.02526855 C50.72774776 -0.03252531 60.63970208 -0.02300915 70.55175781 -0.00390625 C81.97623564 0.01785858 93.40042781 0.01080582 104.82489872 -0.01121187 C114.6716991 -0.0294222 124.51841399 -0.03189673 134.36522579 -0.0214572 C140.22966626 -0.01525316 146.09397291 -0.01430093 151.95840454 -0.02760315 C157.4744146 -0.03924334 162.99005996 -0.03098799 168.50603104 -0.00802612 C170.51823957 -0.00278238 172.53047933 -0.00417743 174.54267502 -0.01307678 C196.03267683 -0.09928508 215.5215079 3.83555333 231.6418457 19.03198242 C246.18462883 33.67915743 252.06830773 52.75065801 252.11181641 73.04760742 C252.12186203 74.14161362 252.13190765 75.23561981 252.14225769 76.36277771 C252.17287603 79.93911262 252.19006512 83.51537343 252.20703125 87.09179688 C252.22576008 89.58714933 252.24533475 92.08249558 252.26571655 94.57783508 C252.31686243 101.11579712 252.35658179 107.65377965 252.39385986 114.1918335 C252.43296821 120.87534006 252.4850519 127.55875629 252.53515625 134.2421875 C252.63170766 147.3339242 252.71654896 160.42570921 252.79296875 173.51757812 C253.61183815 172.57934708 253.61183815 172.57934708 254.44725037 171.62216187 C255.52414879 170.39742661 255.52414879 170.39742661 256.62280273 169.14794922 C257.68917213 167.93128067 257.68917213 167.93128067 258.77708435 166.69003296 C260.95164483 164.34657793 263.05596708 162.68487454 265.85546875 161.14257812 C266.6959375 160.67722656 267.53640625 160.211875 268.40234375 159.73242188 C279.27023277 154.20968742 290.98548651 152.73677173 303 155.16601562 C313.97632953 158.84049504 322.55375286 165.82013633 328.79296875 175.51757812 C330.4069076 178.7782024 331.71447642 182.04446724 332.79296875 185.51757812 C332.98503906 186.11570313 333.17710937 186.71382812 333.375 187.33007812 C337.87178201 210.86463818 323.66407289 228.42220013 311.26171875 246.85351562 C306.61239991 253.76793989 302.0401044 260.73129766 297.48046875 267.70507812 C296.68020986 268.9280822 295.87991674 270.15106387 295.07958984 271.37402344 C292.64967988 275.08786445 290.22119348 278.8026351 287.79296875 282.51757812 C284.95334843 286.86191561 282.11295957 291.20574726 279.27090454 295.54849243 C278.17609005 297.22212031 277.08250921 298.89655499 275.98901367 300.57104492 C275.28107666 301.65297119 274.57313965 302.73489746 273.84375 303.84960938 C273.48407135 304.42852432 273.1243927 305.00743927 272.7538147 305.60389709 C270.33270704 309.43476645 267.69693379 312.81215373 264.69604492 316.21191406 C249.36144149 334.60621583 250.76006502 353.32046331 251.40563965 376.21582031 C251.55528488 382.06882843 251.60465509 387.92339018 251.6563921 393.77795982 C251.69663754 398.33185815 251.75436146 402.88242411 251.87492371 407.43496704 C252.34161412 428.5072161 247.07217699 447.45625471 232.33984375 463.12695312 C218.01782454 476.54821641 200.9663608 482.84505727 181.52377319 482.78500366 C179.88630235 482.79180033 179.88630235 482.79180033 178.21575129 482.79873431 C174.58047659 482.81133163 170.94535262 482.80976093 167.31005859 482.80810547 C164.6941814 482.81409368 162.07830598 482.8208999 159.46243286 482.82846069 C153.10700996 482.8450179 146.75162418 482.85056787 140.39618151 482.85168545 C135.22492729 482.85263856 130.05368522 482.85676195 124.88243484 482.8630867 C110.19210315 482.88068573 95.50180059 482.88992782 80.81145827 482.88842575 C79.62547246 482.88830588 79.62547246 482.88830588 78.41552734 482.88818359 C77.22807818 482.88806095 77.22807818 482.88806095 76.01664014 482.88793583 C63.19844588 482.88712361 50.3803693 482.90624875 37.56220905 482.93446033 C24.37230212 482.96325888 11.18245244 482.97699676 -2.0074867 482.97527277 C-9.40120696 482.97461121 -16.79480387 482.98000023 -24.18849564 483.00162888 C-31.14729895 483.02185626 -38.10583882 483.02109607 -45.0646553 483.00659561 C-47.60901267 483.0045135 -50.15338652 483.00917245 -52.69771576 483.02131653 C-75.16901254 483.12156783 -94.60730479 480.97099648 -112.20703125 465.51757812 C-113.22216797 464.64359375 -113.22216797 464.64359375 -114.2578125 463.75195312 C-125.58976235 453.27815094 -133.60649595 437.29892439 -134.33583242 421.77626997 C-134.33762099 420.83282191 -134.33940956 419.88937386 -134.34125233 418.91733646 C-134.34571017 417.82085445 -134.35016801 416.72437243 -134.35476094 415.59466368 C-134.35457658 414.40061476 -134.35439222 413.20656584 -134.35420227 411.97633362 C-134.35787896 410.69955512 -134.36155565 409.42277661 -134.36534375 408.10730785 C-134.37532987 404.56972739 -134.37907507 401.03216388 -134.38173306 397.49457133 C-134.38564624 393.67635102 -134.39522389 389.85814403 -134.40394592 386.03993225 C-134.42368243 376.82166779 -134.43377327 367.60340227 -134.44267371 358.38512197 C-134.44706149 354.03916138 -134.45242705 349.69320199 -134.45766258 345.34724236 C-134.47467255 330.89163879 -134.48916517 316.43603596 -134.49641132 301.98042393 C-134.49832108 298.2314968 -134.50024143 294.48256968 -134.50219727 290.73364258 C-134.50292288 289.33605452 -134.50292288 289.33605452 -134.50366315 287.91023236 C-134.51195771 272.8278365 -134.53728598 257.74552009 -134.56977794 242.6631589 C-134.60289751 227.16251483 -134.62086453 211.66191108 -134.62405556 196.16123146 C-134.6262162 187.46465655 -134.6348992 178.7681975 -134.66051674 170.07165718 C-134.6822908 162.66296796 -134.69024136 155.25442275 -134.68054996 147.84570516 C-134.67602449 144.07062082 -134.67778814 140.29583318 -134.6973114 136.5207901 C-134.83497118 108.31654695 -131.09536754 88.56063681 -110.68334961 67.81762695 C-106.44002519 63.55018975 -102.20140271 59.33422987 -97.61328125 55.43554688 C-91.13437647 49.83248822 -85.22680647 43.6032633 -79.20703125 37.51757812 C-63.8432215 21.98555148 -63.8432215 21.98555148 -57.20703125 16.51757812 C-56.56056641 15.98438965 -55.91410156 15.45120117 -55.24804688 14.90185547 C-38.87104988 1.67256373 -20.16280959 -0.08917419 0 0 Z " fill="#C2C9E9" transform="translate(156.20703125,14.482421875)"/>
<path d="M0 0 C1.15100693 -0.00905365 2.30201385 -0.0181073 3.48789978 -0.0274353 C7.26774189 -0.04793633 11.04522339 -0.01799487 14.82495117 0.01464844 C17.46997759 0.01501256 20.11491946 0.01310604 22.75993347 0.00872803 C28.29531234 0.0051541 33.83002268 0.02955848 39.36523438 0.07128906 C45.73205535 0.11898759 52.09781776 0.1243387 58.46476823 0.10633874 C64.62650289 0.08976177 70.78786496 0.10180051 76.94956017 0.12706757 C79.55405091 0.13538846 82.1585729 0.13694848 84.76307106 0.13141632 C102.47227155 0.11536789 115.50214391 0.93608757 130.05541992 11.87402344 C130.94229492 12.49277344 131.82916992 13.11152344 132.74291992 13.74902344 C141.7675711 22.04194614 148.39787179 34.55121198 149.26338959 46.82264709 C149.37183675 50.40379865 149.41720081 53.9807523 149.44116211 57.56347656 C149.45699425 58.93770138 149.47353392 60.31191819 149.49072266 61.68612671 C149.54282137 66.17576344 149.57374588 70.66543424 149.60229492 75.15527344 C149.61302884 76.7101391 149.62378387 78.26500462 149.63455963 79.81987 C149.67776938 86.29507482 149.71523091 92.77027039 149.73780441 99.24558258 C149.77021664 108.47737332 149.83645569 117.70747238 149.95060611 126.93862581 C150.0284102 133.45617967 150.06711695 139.973285 150.07764554 146.49129057 C150.08489916 150.37131496 150.10834702 154.24952854 150.17385101 158.12904358 C150.44484461 174.99278796 150.51650485 188.49711788 139.05541992 201.87402344 C137.51460265 204.06806151 136.07030502 206.30670101 134.61791992 208.56152344 C133.78809518 209.79910952 132.95750106 211.03618049 132.12573242 212.27246094 C128.0359861 218.38045082 124.01857647 224.53620651 119.99291992 230.68652344 C119.58534454 231.30913055 119.17776917 231.93173767 118.75784302 232.57321167 C116.67663712 235.75271381 114.59601985 238.9326004 112.51586914 242.11279297 C110.53239602 245.14516284 108.54796939 248.17690702 106.56318665 251.2084198 C102.67624031 257.14525865 98.79498985 263.08579091 94.91674805 269.02832031 C93.19320139 271.66337538 91.46168389 274.2929725 89.72729492 276.92089844 C78.37939542 294.16507538 73.84425739 308.57169652 72.54736328 329.21704102 C72.36932497 332.039251 72.17372282 334.85981872 71.9753418 337.68066406 C71.60656009 343.07589136 71.31436371 348.47251987 71.05541992 353.87402344 C71.01076599 354.70291077 70.96611206 355.5317981 70.92010498 356.38580322 C70.80418735 358.71134594 70.72587583 361.03484686 70.66088867 363.36230469 C70.61472412 364.67368408 70.56855957 365.98506348 70.52099609 367.33618164 C71.22818778 372.01773243 72.73609843 373.56405127 76.05541992 376.87402344 C79.3106328 378.50162988 82.53079801 378.33566059 86.05541992 377.87402344 C89.4841769 376.71832767 92.64715866 375.1386563 95.86791992 373.49902344 C96.77864258 373.05002686 97.68936523 372.60103027 98.62768555 372.13842773 C107.14815625 367.90841205 115.57404703 363.4937463 123.95288086 358.99072266 C125.89479982 357.95933189 127.84873221 356.9592022 129.81323242 355.97167969 C136.1330494 352.73845546 141.31795731 349.30950299 146.44604492 344.37792969 C148.05541992 342.87402344 148.05541992 342.87402344 149.05541992 342.87402344 C149.10190576 351.08040687 149.13737126 359.28673462 149.15904427 367.49321747 C149.16944993 371.30444514 149.18354982 375.11558225 149.20629883 378.92675781 C149.22814266 382.6096332 149.24001271 386.29242185 149.24517441 389.97535706 C149.24884956 391.37546655 149.25602587 392.77557168 149.26688004 394.17564392 C149.32069195 401.40914757 149.27602427 407.957148 147.05541992 414.87402344 C146.77182617 415.76089844 146.48823242 416.64777344 146.19604492 417.56152344 C143.92938605 423.44688331 141.04059953 428.01298018 137.05541992 432.87402344 C136.18916992 434.14246094 136.18916992 434.14246094 135.30541992 435.43652344 C127.89166062 443.46809602 115.97470495 450.51939719 104.87094593 451.01662445 C102.96930699 451.02887936 102.96930699 451.02887936 101.0292511 451.04138184 C100.32164538 451.04717522 99.61403966 451.05296861 98.88499135 451.05893755 C96.51382891 451.07697543 94.14269017 451.08786233 91.77148438 451.09863281 C90.07123093 451.10981067 88.37097966 451.12132407 86.67073059 451.13314819 C81.08675186 451.16967587 75.50275073 451.19492044 69.91870117 451.21777344 C68.96806659 451.2217193 68.01743202 451.22566517 67.03799033 451.22973061 C58.06963114 451.26614539 49.10126401 451.2975822 40.13285542 451.31884003 C28.67006599 451.3464141 17.20789531 451.39718833 5.74536353 451.47931433 C-2.31932836 451.53513545 -10.38385251 451.5640802 -18.44873077 451.57331324 C-23.263193 451.57956539 -28.0769292 451.59763995 -32.89118004 451.6446991 C-37.42307965 451.68845076 -41.95385831 451.69882812 -46.4859333 451.68407059 C-48.14475086 451.68439853 -49.80361749 451.69661989 -51.46224213 451.72192001 C-60.04777221 451.84591824 -66.69066048 451.85289095 -73.30860615 445.62091827 C-73.84847754 445.04444298 -74.38834894 444.46796768 -74.94458008 443.87402344 C-75.83145508 443.04902344 -76.71833008 442.22402344 -77.63208008 441.37402344 C-78.77676758 440.13652344 -78.77676758 440.13652344 -79.94458008 438.87402344 C-80.63100586 438.21273437 -80.63100586 438.21273437 -81.33129883 437.53808594 C-85.07727436 433.66429497 -87.41334264 429.28191474 -89.69458008 424.43652344 C-89.9883252 423.81600098 -90.28207031 423.19547852 -90.5847168 422.55615234 C-93.64070107 415.80258618 -95.25458821 409.31421872 -94.94458008 401.87402344 C-94.1943457 401.84824219 -93.44411133 401.82246094 -92.67114258 401.79589844 C-83.88438372 401.30897477 -75.60543559 400.26703716 -69.44458008 393.43652344 C-65.50142246 388.49611375 -64.68918219 383.90601684 -64.62231445 377.65625 C-64.61238464 376.94821228 -64.60245483 376.24017456 -64.59222412 375.51068115 C-64.56312241 373.17863 -64.54940034 370.84685101 -64.53833008 368.51464844 C-64.53267532 367.71405754 -64.52702057 366.91346664 -64.52119446 366.08861542 C-64.49126402 361.85073028 -64.47277244 357.61298033 -64.46411133 353.375 C-64.4531578 349.0159012 -64.40512504 344.65805693 -64.34816742 340.29935074 C-64.31075552 336.9310963 -64.30049514 333.5631391 -64.29743958 330.19469452 C-64.29141963 328.58881533 -64.27547475 326.9829393 -64.24906921 325.37726593 C-64.06808966 313.72265123 -64.06808966 313.72265123 -69.30114746 303.49310303 C-76.59504208 296.30729219 -84.88336497 296.64796306 -94.94458008 295.87402344 C-94.94458008 282.67402344 -94.94458008 269.47402344 -94.94458008 255.87402344 C-90.32458008 255.54402344 -85.70458008 255.21402344 -80.94458008 254.87402344 C-73.43889022 252.37212682 -70.07325518 249.77036191 -65.83482361 243.13726807 C-64.57497212 239.93437805 -64.66633179 237.09962566 -64.63818359 233.66210938 C-64.62986008 232.94285782 -64.62153656 232.22360626 -64.61296082 231.4825592 C-64.58889252 229.10778361 -64.5800916 226.73328303 -64.57348633 224.35839844 C-64.56451576 222.70176107 -64.55539384 221.04512451 -64.54612732 219.38848877 C-64.52964212 215.91505976 -64.52193839 212.44172705 -64.51904297 208.96826172 C-64.51366746 204.53184487 -64.4760207 200.09634216 -64.43029881 195.66018295 C-64.40045254 192.23706823 -64.39331774 188.8141713 -64.39231682 185.39093781 C-64.38812751 183.75634842 -64.37574519 182.12175761 -64.35479927 180.48729706 C-64.01088413 168.22530544 -64.01088413 168.22530544 -69.94458008 157.87402344 C-75.33743634 152.75080998 -80.47790261 151.583378 -87.75708008 151.24902344 C-88.79638672 151.19101562 -88.79638672 151.19101562 -89.85668945 151.13183594 C-91.55225022 151.03828776 -93.2483772 150.9550998 -94.94458008 150.87402344 C-95.02114581 143.26097108 -95.07339508 135.6480194 -95.109375 128.03466797 C-95.1243872 125.44901824 -95.1448032 122.86339366 -95.17089844 120.27783203 C-95.20761553 116.54420739 -95.22438282 112.81092177 -95.23754883 109.07714844 C-95.25303268 107.936026 -95.26851654 106.79490356 -95.2844696 105.61920166 C-95.28819151 87.54729495 -88.58861533 73.5898998 -75.94458008 60.87402344 C-74.65283651 59.55639049 -73.36117638 58.23867574 -72.06958008 56.92089844 C-69.39105246 54.20615733 -66.7089787 51.49520697 -64.00708008 48.80371094 C-63.44118164 48.23894043 -62.8752832 47.67416992 -62.29223633 47.09228516 C-60.94458008 45.87402344 -60.94458008 45.87402344 -59.94458008 45.87402344 C-59.92999756 47.02402832 -59.91541504 48.1740332 -59.90039062 49.35888672 C-59.84224246 53.64191149 -59.76501084 57.9244196 -59.68212891 62.20703125 C-59.64895712 64.05753163 -59.6209012 65.9081313 -59.59814453 67.75878906 C-59.56445558 70.42523347 -59.51213348 73.09077434 -59.45629883 75.75683594 C-59.44990891 76.57894562 -59.44351898 77.4010553 -59.43693542 78.24807739 C-59.31199612 83.17362914 -58.64224935 86.59781418 -55.94458008 90.87402344 C-51.32571892 95.14647001 -48.0436463 95.99736857 -41.8604126 96.02119446 C-40.58745331 96.02834976 -39.31449402 96.03550507 -38.00296021 96.0428772 C-36.58929468 96.04571744 -35.17562889 96.04842917 -33.76196289 96.05102539 C-32.27535849 96.05729089 -30.78875566 96.06393777 -29.30215454 96.07093811 C-24.41734913 96.09197094 -19.53254344 96.10233988 -14.64770508 96.11230469 C-12.96542087 96.11635256 -11.28313683 96.12046949 -9.60085297 96.12465477 C-1.69699761 96.14370487 6.20684841 96.15793618 14.1107223 96.16626674 C23.23103348 96.17603838 32.3511019 96.20235663 41.47132754 96.24276763 C48.52282121 96.27293883 55.57424532 96.28773657 62.62580228 96.29104775 C66.8363861 96.29339714 71.04671052 96.3023429 75.25722504 96.32750893 C79.22011864 96.35081232 83.18258249 96.35501396 87.14552689 96.34474754 C88.59713039 96.34425262 90.0487552 96.35056047 91.50029373 96.36430359 C102.0202119 96.56834692 102.0202119 96.56834692 111.05541992 91.87402344 C114.95972232 87.02580782 115.64509829 82.62849549 115.55151367 76.52636719 C115.5529689 75.75144424 115.55442413 74.9765213 115.55592346 74.17811584 C115.55427315 72.55026464 115.54280978 70.92239641 115.52197266 69.29467773 C115.49295578 66.81458817 115.50139332 64.33663275 115.5144043 61.85644531 C115.50816734 60.26724231 115.49977673 58.67804599 115.48901367 57.08886719 C115.49194931 56.35433823 115.49488495 55.61980927 115.49790955 54.86302185 C115.39086821 48.97515331 113.89267409 44.99834857 110.05541992 40.56152344 C106.49721201 37.55928552 103.25325183 37.7409992 98.77229309 37.71580505 C96.79719505 37.70112183 96.79719505 37.70112183 94.78219604 37.68614197 C93.31964148 37.68023773 91.85708653 37.67442729 90.39453125 37.66870117 C88.85715979 37.65912282 87.31979097 37.64911277 85.78242493 37.63870239 C81.6050667 37.61164258 77.42769716 37.59063884 73.25029969 37.57070041 C68.88605829 37.5488475 64.5218518 37.52145541 60.15763855 37.49464417 C51.89167078 37.44470787 43.62568364 37.39977251 35.35967797 37.3566218 C25.94984906 37.30725743 16.54005516 37.25233633 7.13026011 37.19694221 C-12.22798744 37.08310778 -31.58626804 36.97627191 -50.94458008 36.87402344 C-50.17345383 36.10387909 -49.40232758 35.33373474 -48.60783386 34.54025269 C-45.90757283 31.83697485 -43.23160093 29.11133236 -40.55786133 26.38183594 C-38.99404001 24.79584622 -37.42874792 23.21132441 -35.86279297 21.62744141 C-34.79851751 20.5481169 -33.73695484 19.46611021 -32.67822266 18.38134766 C-31.12463297 16.79073893 -29.56099277 15.21058341 -27.99536133 13.63183594 C-27.07408447 12.69484863 -26.15280762 11.75786133 -25.20361328 10.79248047 C-17.14130222 3.34049507 -11.13123367 -0.18081865 0 0 Z " fill="#D8DDF9" transform="translate(242.944580078125,30.1259765625)"/>
<path d="M0 0 C2.08475226 -0.00543279 4.16950067 -0.01256188 6.25424194 -0.02124023 C11.86998953 -0.03933893 17.48544028 -0.03246203 23.10119247 -0.01972389 C29.00602713 -0.00952602 34.91083806 -0.01900828 40.81567383 -0.02526855 C50.72774776 -0.03252531 60.63970208 -0.02300915 70.55175781 -0.00390625 C81.97623564 0.01785858 93.40042781 0.01080582 104.82489872 -0.01121187 C114.6716991 -0.0294222 124.51841399 -0.03189673 134.36522579 -0.0214572 C140.22966626 -0.01525316 146.09397291 -0.01430093 151.95840454 -0.02760315 C157.4744146 -0.03924334 162.99005996 -0.03098799 168.50603104 -0.00802612 C170.51823957 -0.00278238 172.53047933 -0.00417743 174.54267502 -0.01307678 C196.03267683 -0.09928508 215.5215079 3.83555333 231.6418457 19.03198242 C246.18462883 33.67915743 252.06830773 52.75065801 252.11181641 73.04760742 C252.12186203 74.14161362 252.13190765 75.23561981 252.14225769 76.36277771 C252.17287603 79.93911262 252.19006512 83.51537343 252.20703125 87.09179688 C252.22576008 89.58714933 252.24533475 92.08249558 252.26571655 94.57783508 C252.31686243 101.11579712 252.35658179 107.65377965 252.39385986 114.1918335 C252.43296821 120.87534006 252.4850519 127.55875629 252.53515625 134.2421875 C252.63170766 147.3339242 252.71654896 160.42570921 252.79296875 173.51757812 C253.61183815 172.57934708 253.61183815 172.57934708 254.44725037 171.62216187 C255.52414879 170.39742661 255.52414879 170.39742661 256.62280273 169.14794922 C257.68917213 167.93128067 257.68917213 167.93128067 258.77708435 166.69003296 C260.95164483 164.34657793 263.05596708 162.68487454 265.85546875 161.14257812 C266.6959375 160.67722656 267.53640625 160.211875 268.40234375 159.73242188 C279.27023277 154.20968742 290.98548651 152.73677173 303 155.16601562 C313.97632953 158.84049504 322.55375286 165.82013633 328.79296875 175.51757812 C330.4069076 178.7782024 331.71447642 182.04446724 332.79296875 185.51757812 C332.98503906 186.11570313 333.17710937 186.71382812 333.375 187.33007812 C337.87178201 210.86463818 323.66407289 228.42220013 311.26171875 246.85351562 C306.61239991 253.76793989 302.0401044 260.73129766 297.48046875 267.70507812 C296.68020986 268.9280822 295.87991674 270.15106387 295.07958984 271.37402344 C292.64967988 275.08786445 290.22119348 278.8026351 287.79296875 282.51757812 C284.95334843 286.86191561 282.11295957 291.20574726 279.27090454 295.54849243 C278.17609005 297.22212031 277.08250921 298.89655499 275.98901367 300.57104492 C275.28107666 301.65297119 274.57313965 302.73489746 273.84375 303.84960938 C273.48407135 304.42852432 273.1243927 305.00743927 272.7538147 305.60389709 C270.33270704 309.43476645 267.69693379 312.81215373 264.69604492 316.21191406 C249.36144149 334.60621583 250.76006502 353.32046331 251.40563965 376.21582031 C251.55528488 382.06882843 251.60465509 387.92339018 251.6563921 393.77795982 C251.69663754 398.33185815 251.75436146 402.88242411 251.87492371 407.43496704 C252.34161412 428.5072161 247.07217699 447.45625471 232.33984375 463.12695312 C218.01782454 476.54821641 200.9663608 482.84505727 181.52377319 482.78500366 C179.88630235 482.79180033 179.88630235 482.79180033 178.21575129 482.79873431 C174.58047659 482.81133163 170.94535262 482.80976093 167.31005859 482.80810547 C164.6941814 482.81409368 162.07830598 482.8208999 159.46243286 482.82846069 C153.10700996 482.8450179 146.75162418 482.85056787 140.39618151 482.85168545 C135.22492729 482.85263856 130.05368522 482.85676195 124.88243484 482.8630867 C110.19210315 482.88068573 95.50180059 482.88992782 80.81145827 482.88842575 C79.62547246 482.88830588 79.62547246 482.88830588 78.41552734 482.88818359 C77.22807818 482.88806095 77.22807818 482.88806095 76.01664014 482.88793583 C63.19844588 482.88712361 50.3803693 482.90624875 37.56220905 482.93446033 C24.37230212 482.96325888 11.18245244 482.97699676 -2.0074867 482.97527277 C-9.40120696 482.97461121 -16.79480387 482.98000023 -24.18849564 483.00162888 C-31.14729895 483.02185626 -38.10583882 483.02109607 -45.0646553 483.00659561 C-47.60901267 483.0045135 -50.15338652 483.00917245 -52.69771576 483.02131653 C-75.16901254 483.12156783 -94.60730479 480.97099648 -112.20703125 465.51757812 C-113.22216797 464.64359375 -113.22216797 464.64359375 -114.2578125 463.75195312 C-125.58976235 453.27815094 -133.60649595 437.29892439 -134.33583242 421.77626997 C-134.33762099 420.83282191 -134.33940956 419.88937386 -134.34125233 418.91733646 C-134.34571017 417.82085445 -134.35016801 416.72437243 -134.35476094 415.59466368 C-134.35457658 414.40061476 -134.35439222 413.20656584 -134.35420227 411.97633362 C-134.35787896 410.69955512 -134.36155565 409.42277661 -134.36534375 408.10730785 C-134.37532987 404.56972739 -134.37907507 401.03216388 -134.38173306 397.49457133 C-134.38564624 393.67635102 -134.39522389 389.85814403 -134.40394592 386.03993225 C-134.42368243 376.82166779 -134.43377327 367.60340227 -134.44267371 358.38512197 C-134.44706149 354.03916138 -134.45242705 349.69320199 -134.45766258 345.34724236 C-134.47467255 330.89163879 -134.48916517 316.43603596 -134.49641132 301.98042393 C-134.49832108 298.2314968 -134.50024143 294.48256968 -134.50219727 290.73364258 C-134.50292288 289.33605452 -134.50292288 289.33605452 -134.50366315 287.91023236 C-134.51195771 272.8278365 -134.53728598 257.74552009 -134.56977794 242.6631589 C-134.60289751 227.16251483 -134.62086453 211.66191108 -134.62405556 196.16123146 C-134.6262162 187.46465655 -134.6348992 178.7681975 -134.66051674 170.07165718 C-134.6822908 162.66296796 -134.69024136 155.25442275 -134.68054996 147.84570516 C-134.67602449 144.07062082 -134.67778814 140.29583318 -134.6973114 136.5207901 C-134.83497118 108.31654695 -131.09536754 88.56063681 -110.68334961 67.81762695 C-106.44002519 63.55018975 -102.20140271 59.33422987 -97.61328125 55.43554688 C-91.13437647 49.83248822 -85.22680647 43.6032633 -79.20703125 37.51757812 C-63.8432215 21.98555148 -63.8432215 21.98555148 -57.20703125 16.51757812 C-56.56056641 15.98438965 -55.91410156 15.45120117 -55.24804688 14.90185547 C-38.87104988 1.67256373 -20.16280959 -0.08917419 0 0 Z M-16.20703125 15.51757812 C-16.21067688 16.48509003 -16.21432251 17.45260193 -16.21807861 18.44943237 C-16.25513732 27.59995705 -16.31302803 36.75014858 -16.39093399 45.90041924 C-16.43032027 50.60387371 -16.46255195 55.30714344 -16.47802734 60.01074219 C-16.49325249 64.55621564 -16.527801 69.10118089 -16.57534027 73.64642715 C-16.59009394 75.37417287 -16.59806879 77.10199116 -16.5989151 78.82979965 C-16.61831427 98.58887867 -16.61831427 98.58887867 -23.06640625 106.91992188 C-23.6903125 107.42652344 -24.31421875 107.933125 -24.95703125 108.45507812 C-25.87742188 109.24205078 -25.87742188 109.24205078 -26.81640625 110.04492188 C-32.94925552 113.8228372 -38.59075426 114.96366393 -45.64257812 114.94995117 C-46.84401962 114.96523865 -46.84401962 114.96523865 -48.06973267 114.98083496 C-50.68848851 115.01076656 -53.30687741 115.02020021 -55.92578125 115.02929688 C-57.75281979 115.04615832 -59.57984683 115.06431052 -61.40686035 115.08369446 C-66.19401456 115.13104154 -70.98112212 115.16094959 -75.76843262 115.18713379 C-80.66212164 115.21701674 -85.55565024 115.26352039 -90.44921875 115.30859375 C-100.03507207 115.39445274 -109.62095856 115.46187517 -119.20703125 115.51757812 C-119.29867099 154.13444727 -119.36911269 192.75129999 -119.41129257 231.36825595 C-119.41629514 235.93170206 -119.42147246 240.49514796 -119.42675781 245.05859375 C-119.42780705 245.96705891 -119.4288563 246.87552407 -119.42993733 247.81151848 C-119.44732257 262.50374183 -119.47884986 277.19590231 -119.51564243 291.88808842 C-119.55310427 306.97381765 -119.57527817 322.05951404 -119.58338523 337.14528787 C-119.58886215 346.44722176 -119.60613405 355.7489779 -119.63869712 365.05085705 C-119.65990979 371.43737265 -119.66621608 377.82379693 -119.66103676 384.21034516 C-119.65848543 387.8900855 -119.66227921 391.56951615 -119.68385315 395.24920082 C-119.7071445 399.25134472 -119.69892717 403.25283849 -119.68804932 407.2550354 C-119.69970068 408.40099485 -119.71135205 409.5469543 -119.72335649 410.72763979 C-119.60569622 426.83551023 -114.16684179 441.24149579 -103.0859375 452.90039062 C-90.79078697 464.0778002 -77.76076908 467.6720899 -61.61299133 467.65802002 C-60.01210727 467.6624767 -60.01210727 467.6624767 -58.37888211 467.66702342 C-54.80246619 467.67569538 -51.2260838 467.6772174 -47.6496582 467.67871094 C-45.0853722 467.68334016 -42.52108688 467.68836497 -39.95680237 467.6937561 C-32.98969887 467.70687183 -26.02260638 467.71336039 -19.05549264 467.71776676 C-14.70179578 467.7205332 -10.34810112 467.72477127 -5.99440575 467.72927094 C6.06956054 467.74146041 18.13352506 467.7517604 30.19749737 467.75514603 C30.96903361 467.75536559 31.74056985 467.75558516 32.53548597 467.75581138 C33.30882369 467.75602966 34.08216141 467.75624793 34.87893361 467.75647283 C36.4459004 467.75691629 38.01286719 467.75736285 39.57983398 467.7578125 C40.35709663 467.75803393 41.13435928 467.75825536 41.93517534 467.7584835 C54.52418298 467.76242991 67.11313268 467.77988059 79.70211794 467.80317202 C92.63987529 467.82691471 105.57760359 467.8393492 118.51538306 467.84051394 C125.7742868 467.84142906 133.03311503 467.84714003 140.29199791 467.86533356 C147.12183078 467.88239193 153.95151838 467.88396539 160.78136635 467.87519455 C163.2842815 467.87442465 165.78720438 467.8787606 168.2901001 467.8886528 C171.71490645 467.90139194 175.13920732 467.89548434 178.56401062 467.8850708 C179.5473051 467.89312721 180.53059958 467.90118361 181.54369086 467.90948415 C195.2059778 467.81276368 210.2989058 462.66864561 220.34765625 453.09960938 C229.88814687 442.65663991 235.93465332 430.20997272 235.90649414 415.96142578 C235.90638084 414.04011337 235.90638084 414.04011337 235.90626526 412.07998657 C235.9011598 410.69720419 235.89594383 409.31442221 235.890625 407.93164062 C235.88875792 406.50532074 235.88733539 405.0790002 235.88633728 403.65267944 C235.8825349 399.9143087 235.87272427 396.17597734 235.8616333 392.43762207 C235.85136999 388.61662326 235.84682915 384.79561803 235.84179688 380.97460938 C235.83109978 373.48891442 235.81405098 366.00325181 235.79296875 358.51757812 C235.08979019 359.13212105 235.08979019 359.13212105 234.37240601 359.75907898 C233.75112823 360.29773087 233.12985046 360.83638275 232.48974609 361.39135742 C231.57000504 362.19152534 231.57000504 362.19152534 230.63168335 363.00785828 C228.06111647 365.11848265 225.32213883 366.71625964 222.41796875 368.33007812 C221.82419434 368.66136719 221.23041992 368.99265625 220.61865234 369.33398438 C218.68304649 370.40715193 216.73967883 371.4646975 214.79296875 372.51757812 C214.11878906 372.88286621 213.44460938 373.2481543 212.75 373.62451172 C202.53801563 379.13524719 192.21263966 384.41147833 181.79296875 389.51757812 C180.89578125 389.97519531 179.99859375 390.4328125 179.07421875 390.90429688 C174.06085434 393.35088738 170.38415203 394.26306923 164.79296875 393.51757812 C161.51315124 391.44986709 159.94550868 389.74638802 157.79296875 386.51757812 C157.60797485 384.03147713 157.54410156 381.67725906 157.5859375 379.19335938 C157.59280075 378.44927322 157.599664 377.70518707 157.60673523 376.93855286 C157.73800761 368.11803447 158.29119323 359.32047351 158.90991211 350.52270508 C159.1064051 347.69158693 159.28496947 344.85968255 159.46289062 342.02734375 C160.76744086 322.43788497 165.62669953 308.31744118 176.72265625 292.04882812 C180.47053867 286.54826686 184.09525407 280.96796119 187.73046875 275.39257812 C189.21055762 273.12540291 190.69125018 270.85862211 192.171875 268.59179688 C192.549384 268.01366745 192.92689301 267.43553802 193.31584167 266.83988953 C197.19952168 260.89293548 201.09148435 254.951419 204.98471069 249.01071167 C206.1648675 247.20981059 207.34478962 245.40875594 208.5246582 243.60766602 C212.2893025 237.86132404 216.05576778 232.11618859 219.8263855 226.37376404 C221.59747754 223.67626656 223.36777692 220.97824935 225.13800049 218.28018188 C225.98651768 216.98741814 226.83543085 215.69491421 227.68475342 214.40267944 C228.85981817 212.61479205 230.03356547 210.8260465 231.20703125 209.03710938 C231.87686035 208.01721924 232.54668945 206.9973291 233.23681641 205.9465332 C235.59522951 202.26535153 235.92198848 200.34185184 235.94013977 195.97367859 C235.94729507 194.79490646 235.95445038 193.61613434 235.96182251 192.40164185 C235.96451141 191.10145111 235.96720032 189.80126038 235.9699707 188.46166992 C235.97623506 187.08346892 235.98288184 185.7052696 235.98988342 184.32707214 C236.01094875 179.79032573 236.02129557 175.25357892 236.03125 170.71679688 C236.03529816 169.15259089 236.0394151 167.58838508 236.04360008 166.02417946 C236.06266576 158.66705897 236.07688775 151.30994854 236.08521205 143.95280808 C236.0949572 135.48059368 236.12119917 127.00864245 236.16171294 118.53652066 C236.19198825 111.97836748 236.20669212 105.42028917 236.20999306 98.86206752 C236.21233274 94.95084611 236.22114901 91.03990534 236.24645424 87.12875938 C236.26993727 83.4391698 236.27388827 79.75004148 236.26369286 76.06039619 C236.26297043 74.08166645 236.28192379 72.10295908 236.30175781 70.12432861 C236.21691755 55.34298856 231.52610921 42.19458383 221.5390625 31.16992188 C210.27629573 20.51186741 196.23998099 15.16173163 180.89012146 15.27706909 C180.04121985 15.27536024 179.19231824 15.27365139 178.31769234 15.27189076 C175.49873452 15.26862012 172.68001954 15.27955924 169.86108398 15.29052734 C167.83022568 15.29109198 165.79936698 15.29077387 163.76850891 15.28964233 C158.27331332 15.28906988 152.77820551 15.30080687 147.28303027 15.31479025 C141.53350444 15.32731546 135.78397646 15.32846952 130.03443909 15.33084106 C119.15493431 15.33705057 108.27546985 15.35345423 97.3959828 15.37354004 C85.00665632 15.39591552 72.61732788 15.40689662 60.22798622 15.41693091 C34.74962473 15.43782091 9.271299 15.4729866 -16.20703125 15.51757812 Z " fill="#070707" transform="translate(156.20703125,14.482421875)"/>
<path d="M0 0 C0.69959839 -0.0065712 1.39919678 -0.0131424 2.11999512 -0.01991272 C4.43522251 -0.03962096 6.75038501 -0.05130455 9.06567383 -0.0612793 C9.85831446 -0.06535482 10.65095509 -0.06943035 11.46761513 -0.07362938 C15.66541914 -0.0944825 19.86319057 -0.10878583 24.06103516 -0.11816406 C28.38410215 -0.12920936 32.70665171 -0.16358924 37.02953625 -0.20333576 C40.36427221 -0.22956171 43.69888619 -0.23786131 47.0337162 -0.24144554 C48.62643224 -0.24629839 50.21914331 -0.2578751 51.81175804 -0.27648354 C68.81460595 -0.46275326 68.81460595 -0.46275326 76.10864258 5.95825195 C76.5546582 6.52543945 77.00067383 7.09262695 77.46020508 7.67700195 C78.15243164 8.5277832 78.15243164 8.5277832 78.85864258 9.39575195 C81.90066595 13.81346742 82.34720688 16.96734401 82.39160156 22.38891602 C82.39992508 23.10816757 82.4082486 23.82741913 82.41682434 24.56846619 C82.44089264 26.94324179 82.44969356 29.31774236 82.45629883 31.69262695 C82.4652694 33.34926432 82.47439132 35.00590088 82.48365784 36.66253662 C82.50014304 40.13596563 82.50784676 43.60929834 82.51074219 47.08276367 C82.5161177 51.51918052 82.55376446 55.95468323 82.59948635 60.39084244 C82.62933261 63.81395717 82.63646742 67.23685409 82.63746834 70.66008759 C82.64165764 72.29467697 82.65403997 73.92926778 82.67498589 75.56372833 C82.7889309 85.22632174 82.6438069 92.40096093 75.64231873 99.67633057 C70.3679536 104.53095852 64.91040446 105.42237672 57.95336914 105.49926758 C56.92276367 105.51416229 56.92276367 105.51416229 55.87133789 105.52935791 C53.61446009 105.5583948 51.35786343 105.57217036 49.10083008 105.58325195 C48.32446953 105.58890671 47.54810898 105.59456146 46.74822235 105.60038757 C42.63885658 105.63029064 38.52962974 105.64879976 34.42016602 105.6574707 C30.19905982 105.66842303 25.97924951 105.71646079 21.75854874 105.77341461 C18.49147965 105.81086838 15.2247164 105.82108906 11.95745087 105.82414246 C10.40263543 105.83015258 8.84782259 105.84606336 7.29322052 105.87251282 C-2.0197257 106.01964056 -9.49688262 105.54289985 -16.91479492 99.17700195 C-21.53740642 93.51430287 -23.15795889 88.50121953 -23.22119141 81.25048828 C-23.22951492 80.57331757 -23.23783844 79.89614685 -23.24641418 79.19845581 C-23.27042806 76.96858899 -23.27927725 74.73901547 -23.28588867 72.5090332 C-23.29486432 70.9482973 -23.30398633 69.38756224 -23.31324768 67.826828 C-23.32971881 64.55608028 -23.33743386 61.28543465 -23.34033203 58.01464844 C-23.34570198 53.84635106 -23.38333134 49.67902917 -23.42907619 45.51100636 C-23.45899196 42.2859711 -23.46605877 39.06116613 -23.46705818 35.83600426 C-23.47123481 34.30075316 -23.48356516 32.76549974 -23.50457573 31.23038673 C-23.61586264 22.39319352 -23.43884548 14.51236445 -17.91479492 7.17700195 C-12.1755164 1.84492599 -7.88345688 0.06129825 0 0 Z " fill="#FC4E59" transform="translate(96.914794921875,180.822998046875)"/>
<path d="M0 0 C0.66741714 -0.00671722 1.33483429 -0.01343445 2.0224762 -0.02035522 C4.21989481 -0.03928625 6.41700694 -0.0432575 8.61450195 -0.04541016 C10.15281801 -0.05184371 11.69113287 -0.05857248 13.22944641 -0.06558228 C16.45312329 -0.0775444 19.67669313 -0.08126443 22.90039062 -0.08007812 C27.00802409 -0.0798755 31.11496127 -0.10712271 35.22243023 -0.14162254 C38.40113908 -0.16399401 41.57968343 -0.16791248 44.75846291 -0.16685867 C46.27136435 -0.16920136 47.78427126 -0.17794888 49.29709435 -0.19352341 C68.11347673 -0.36903344 68.11347673 -0.36903344 75.0945282 6.06997681 C79.85754312 11.2872181 81.41337816 15.27740673 81.45581055 22.41064453 C81.46252777 23.12014252 81.469245 23.8296405 81.47616577 24.56063843 C81.49514043 26.90296464 81.49907008 29.24500407 81.5012207 31.58740234 C81.50765055 33.22161984 81.51437906 34.85583618 81.52139282 36.49005127 C81.53336535 39.91640896 81.53707383 43.34266584 81.53588867 46.76904297 C81.53568584 51.14480383 81.56295086 55.51991264 81.59743309 59.89551926 C81.61975168 63.27230759 81.62372465 66.64894046 81.62266922 70.02579498 C81.62501915 71.63803599 81.63380824 73.25028168 81.64933395 74.86244965 C81.7981968 91.92173709 81.7981968 91.92173709 75.41918945 99.31396484 C74.86102539 99.75998047 74.30286133 100.20599609 73.7277832 100.66552734 C72.8944043 101.35775391 72.8944043 101.35775391 72.04418945 102.06396484 C67.46582616 105.05275086 63.51894278 105.54515908 58.09936523 105.56518555 C57.40762207 105.57029648 56.71587891 105.57540741 56.00317383 105.58067322 C53.72639201 105.59452314 51.44991453 105.59361579 49.1730957 105.59130859 C47.58275237 105.59519842 45.99241006 105.59953368 44.40206909 105.60429382 C41.07164134 105.61174641 37.74131961 105.61147202 34.41088867 105.60620117 C30.15510475 105.60041168 25.89975677 105.61732937 21.64404488 105.64054585 C18.35994961 105.65532035 15.0759584 105.65614978 11.79183578 105.65303612 C10.22343966 105.65354759 8.65503745 105.65875255 7.08667374 105.66884804 C4.8874962 105.68126604 2.68915564 105.67438936 0.48999023 105.6628418 C-0.75845673 105.66347122 -2.00690369 105.66410065 -3.29318237 105.66474915 C-9.73288924 104.9842874 -15.51498328 102.23270949 -19.8347168 97.29052734 C-24.96744287 89.65493945 -24.42003283 80.98272676 -24.3659668 72.16162109 C-24.36866677 70.60180927 -24.37255338 69.0419991 -24.37756348 67.48219299 C-24.38343313 64.22681518 -24.37497713 60.97187888 -24.35620117 57.71655273 C-24.33339349 53.56168512 -24.34656145 49.40785025 -24.37049103 45.25302029 C-24.38500192 42.03660922 -24.38031931 38.82043974 -24.36997986 35.60402107 C-24.36732813 34.0727431 -24.37052713 32.54144256 -24.37989807 31.01019096 C-24.42457208 21.66214604 -24.30641483 14.39341933 -17.86987305 7.04833984 C-17.21889648 6.50951172 -16.56791992 5.97068359 -15.8972168 5.41552734 C-15.24881836 4.86123047 -14.60041992 4.30693359 -13.93237305 3.73583984 C-9.38587012 0.60324006 -5.46963409 0.03468275 0 0 Z " fill="#65CB65" transform="translate(97.834716796875,325.70947265625)"/>
<path d="M0 0 C1.9578241 -0.01475121 1.9578241 -0.01475121 3.9552002 -0.02980042 C5.38948323 -0.02042975 6.82376363 -0.01065049 8.25804138 -0.00050354 C9.77789306 -0.0042891 11.29774129 -0.0097911 12.81758118 -0.01687622 C16.93534614 -0.03081617 21.05269259 -0.01967205 25.17043424 -0.00316501 C29.48291923 0.01070346 33.79538038 0.00422346 38.10787964 0.0007019 C45.34826896 -0.00199851 52.58849233 0.01146182 59.82884216 0.03465271 C68.1972755 0.06127147 76.56543161 0.06300575 84.93389279 0.05126435 C92.98888223 0.04048266 101.04377148 0.04667605 109.09875298 0.06081963 C112.52489022 0.06657503 115.95095405 0.06650028 119.37709236 0.06175423 C123.41142101 0.05697938 127.4454463 0.06710697 131.47971725 0.08870888 C132.95955189 0.09426965 134.43941573 0.09474853 135.9192524 0.08975601 C137.94031562 0.08379298 139.96140829 0.09815572 141.98242188 0.11352539 C143.67835401 0.11717023 143.67835401 0.11717023 145.4085474 0.12088871 C150.08140321 0.70951547 153.26469342 2.8693812 156.17771912 6.50120544 C160.81558045 12.68502055 159.72417997 20.2532794 159.77781677 27.66893005 C159.79433127 29.33997061 159.82156187 31.01094184 159.85984802 32.68162537 C160.23921439 49.34240664 160.23921439 49.34240664 156.19187927 55.00437927 C148.79617732 61.27936525 142.19927999 61.07639739 132.79100037 61.01878357 C131.30380062 61.02420923 129.81660625 61.03133437 128.329422 61.0400238 C124.30456657 61.05820761 120.28012279 61.05121029 116.25526047 61.03850746 C112.03579886 61.02835405 107.81637162 61.03777963 103.59690857 61.04405212 C96.51212765 61.05132173 89.42751372 61.04175892 82.34275818 61.02268982 C74.16117501 61.00092232 65.9799906 61.00797418 57.79841709 61.02999544 C50.76379524 61.04816908 43.72929317 61.05069819 36.69465542 61.04024076 C32.49758814 61.03401659 28.30070808 61.03314043 24.10365295 61.04638672 C20.15705905 61.0579733 16.21097741 61.04986882 12.26443863 61.02680969 C10.81930516 61.0215375 9.37412829 61.02301084 7.9290123 61.03186035 C-5.65466216 61.10735048 -5.65466216 61.10735048 -11.57228088 56.50120544 C-16.41995058 51.27082498 -16.74668785 46.99739043 -16.81056213 40.10667419 C-16.81863388 39.28169937 -16.82670563 38.45672455 -16.83502197 37.60675049 C-16.84884662 35.86089673 -16.85957601 34.11501612 -16.8674469 32.36912537 C-16.88465061 29.70885077 -16.92854861 27.04982237 -16.97267151 24.38987732 C-16.98279993 22.69131872 -16.99131556 20.99274959 -16.99806213 19.29417419 C-17.01557022 18.50334946 -17.03307831 17.71252472 -17.05111694 16.8977356 C-17.03061411 11.63704706 -16.14367829 8.60799687 -12.57228088 4.50120544 C-8.25345977 1.12721033 -5.46564358 0.00101138 0 0 Z " fill="#0E0C0A" transform="translate(199.57228088378906,66.49879455566406)"/>
<path d="M0 0 C9.36013455 4.70068431 17.9015394 10.48697734 26.55810547 16.35058594 C30.73341054 19.17085799 34.93036311 21.95860043 39.125 24.75 C40.64853331 25.76548127 42.17197993 26.78109263 43.6953125 27.796875 C44.78585937 28.52390625 45.87640625 29.2509375 47 30 C46.36451203 33.31589552 45.14769596 35.59710117 43.2890625 38.40234375 C42.71381836 39.27713379 42.13857422 40.15192383 41.54589844 41.05322266 C40.59505371 42.48093994 40.59505371 42.48093994 39.625 43.9375 C38.24736567 46.02732387 36.86976298 48.11716859 35.4921875 50.20703125 C34.7524248 51.32512926 34.01251347 52.44312896 33.27246094 53.56103516 C30.98637782 57.01699699 28.71409207 60.48187958 26.4453125 63.94921875 C26.06240051 64.5343927 25.67948853 65.11956665 25.28497314 65.72247314 C24.50236649 66.91857705 23.71979431 68.11470352 22.93725586 69.31085205 C20.93112645 72.37625326 18.92258233 75.44007097 16.9140625 78.50390625 C16.5108075 79.11909119 16.10755249 79.73427612 15.69207764 80.36810303 C13.63184624 83.51100443 11.57137804 86.65375048 9.51074219 89.79638672 C7.04849627 93.55154032 4.58655743 97.30689504 2.125 101.0625 C1.73013397 101.66494537 1.33526794 102.26739075 0.92843628 102.88809204 C-6.07479939 113.5744828 -13.04868981 124.27975681 -20 135 C-23.41691282 133.73175935 -26.32724068 132.27463713 -29.34375 130.234375 C-30.16842773 129.68040039 -30.99310547 129.12642578 -31.84277344 128.55566406 C-32.7196582 127.95979492 -33.59654297 127.36392578 -34.5 126.75 C-36.36958231 125.48927281 -38.23938072 124.22886605 -40.109375 122.96875 C-41.07294922 122.31777344 -42.03652344 121.66679687 -43.02929688 120.99609375 C-46.01378221 118.99073937 -49.01189634 117.00764475 -52.015625 115.03125 C-52.97662109 114.39735352 -53.93761719 113.76345703 -54.92773438 113.11035156 C-56.78634793 111.8852101 -58.64697903 110.66312306 -60.50976562 109.44433594 C-61.34701172 108.89036133 -62.18425781 108.33638672 -63.046875 107.765625 C-63.78776367 107.27868164 -64.52865234 106.79173828 -65.29199219 106.29003906 C-67 105 -67 105 -68 103 C-67.22167969 101.3972168 -67.22167969 101.3972168 -65.921875 99.44921875 C-65.43041992 98.70333496 -64.93896484 97.95745117 -64.43261719 97.18896484 C-63.59972168 95.95073975 -63.59972168 95.95073975 -62.75 94.6875 C-61.54158088 92.86073383 -60.33325302 91.03390729 -59.125 89.20703125 C-58.46242188 88.2113916 -57.79984375 87.21575195 -57.1171875 86.18994141 C-53.70550567 81.04960068 -50.33372615 75.88323796 -46.9571228 70.71981812 C-45.3278223 68.2297955 -43.69585518 65.74152585 -42.06388855 63.25325012 C-38.5817053 57.9438599 -35.10474873 52.63114729 -31.63671875 47.3125 C-24.14180269 35.82000689 -16.60539807 24.35710689 -9 12.9375 C-8.60215302 12.33943542 -8.20430603 11.74137085 -7.79440308 11.12518311 C-6.67677499 9.44584435 -5.55718692 7.76781049 -4.4375 6.08984375 C-3.79683594 5.12941162 -3.15617187 4.16897949 -2.49609375 3.17944336 C-1 1 -1 1 0 0 Z " fill="#F9DA42" transform="translate(406,222)"/>
<path d="M0 0 C0.69959839 -0.0065712 1.39919678 -0.0131424 2.11999512 -0.01991272 C4.43522251 -0.03962096 6.75038501 -0.05130455 9.06567383 -0.0612793 C9.85831446 -0.06535482 10.65095509 -0.06943035 11.46761513 -0.07362938 C15.66541914 -0.0944825 19.86319057 -0.10878583 24.06103516 -0.11816406 C28.38410215 -0.12920936 32.70665171 -0.16358924 37.02953625 -0.20333576 C40.36427221 -0.22956171 43.69888619 -0.23786131 47.0337162 -0.24144554 C48.62643224 -0.24629839 50.21914331 -0.2578751 51.81175804 -0.27648354 C68.81460595 -0.46275326 68.81460595 -0.46275326 76.10864258 5.95825195 C76.5546582 6.52543945 77.00067383 7.09262695 77.46020508 7.67700195 C78.15243164 8.5277832 78.15243164 8.5277832 78.85864258 9.39575195 C81.90066595 13.81346742 82.34720688 16.96734401 82.39160156 22.38891602 C82.39992508 23.10816757 82.4082486 23.82741913 82.41682434 24.56846619 C82.44089264 26.94324179 82.44969356 29.31774236 82.45629883 31.69262695 C82.4652694 33.34926432 82.47439132 35.00590088 82.48365784 36.66253662 C82.50014304 40.13596563 82.50784676 43.60929834 82.51074219 47.08276367 C82.5161177 51.51918052 82.55376446 55.95468323 82.59948635 60.39084244 C82.62933261 63.81395717 82.63646742 67.23685409 82.63746834 70.66008759 C82.64165764 72.29467697 82.65403997 73.92926778 82.67498589 75.56372833 C82.7889309 85.22632174 82.6438069 92.40096093 75.64231873 99.67633057 C70.3679536 104.53095852 64.91040446 105.42237672 57.95336914 105.49926758 C56.92276367 105.51416229 56.92276367 105.51416229 55.87133789 105.52935791 C53.61446009 105.5583948 51.35786343 105.57217036 49.10083008 105.58325195 C48.32446953 105.58890671 47.54810898 105.59456146 46.74822235 105.60038757 C42.63885658 105.63029064 38.52962974 105.64879976 34.42016602 105.6574707 C30.19905982 105.66842303 25.97924951 105.71646079 21.75854874 105.77341461 C18.49147965 105.81086838 15.2247164 105.82108906 11.95745087 105.82414246 C10.40263543 105.83015258 8.84782259 105.84606336 7.29322052 105.87251282 C-2.0197257 106.01964056 -9.49688262 105.54289985 -16.91479492 99.17700195 C-21.53740642 93.51430287 -23.15795889 88.50121953 -23.22119141 81.25048828 C-23.22951492 80.57331757 -23.23783844 79.89614685 -23.24641418 79.19845581 C-23.27042806 76.96858899 -23.27927725 74.73901547 -23.28588867 72.5090332 C-23.29486432 70.9482973 -23.30398633 69.38756224 -23.31324768 67.826828 C-23.32971881 64.55608028 -23.33743386 61.28543465 -23.34033203 58.01464844 C-23.34570198 53.84635106 -23.38333134 49.67902917 -23.42907619 45.51100636 C-23.45899196 42.2859711 -23.46605877 39.06116613 -23.46705818 35.83600426 C-23.47123481 34.30075316 -23.48356516 32.76549974 -23.50457573 31.23038673 C-23.61586264 22.39319352 -23.43884548 14.51236445 -17.91479492 7.17700195 C-12.1755164 1.84492599 -7.88345688 0.06129825 0 0 Z M-6.29125977 16.80627441 C-8.41498719 19.90739549 -8.42199237 21.86396109 -8.43237305 25.61035156 C-8.44498169 26.91528061 -8.45759033 28.22020966 -8.47058105 29.56468201 C-8.4634205 30.98624207 -8.45521632 32.4077972 -8.44604492 33.8293457 C-8.44874068 35.29138955 -8.4526238 36.75343164 -8.4576416 38.21546936 C-8.46353471 41.27793466 -8.45498169 44.33993282 -8.4362793 47.40234375 C-8.41350918 51.32114145 -8.42660039 55.23884215 -8.45056915 59.15759945 C-8.46504995 62.17660224 -8.46041053 65.19534664 -8.45005798 68.21435738 C-8.44739591 69.65880018 -8.45064221 71.10326671 -8.4599762 72.54768181 C-8.47017502 74.56986902 -8.45186433 76.59213882 -8.43237305 78.61425781 C-8.42919067 79.76357285 -8.4260083 80.91288788 -8.42272949 82.09703064 C-7.78808232 85.94535125 -6.81673605 87.57691159 -3.91479492 90.17700195 C-0.84957885 90.92589613 -0.84957885 90.92589613 2.6262207 90.80810547 C3.27386887 90.81526077 3.92151703 90.82241608 4.58879089 90.82978821 C6.72373598 90.84665938 8.8565761 90.82728657 10.99145508 90.8059082 C12.47831394 90.80673707 13.96517271 90.80919713 15.45202637 90.81321716 C18.56587354 90.81607403 21.67900095 90.80138641 24.79272461 90.77392578 C28.78115232 90.73984187 32.76829322 90.74586152 36.75678253 90.76458836 C39.82638242 90.77516457 42.89568362 90.76621515 45.96525574 90.75120354 C47.43563449 90.74602574 48.90604448 90.74649869 50.37641907 90.75274849 C52.43302303 90.75820876 54.48779445 90.73780514 56.54418945 90.71044922 C57.71348999 90.70425064 58.88279053 90.69805206 60.08752441 90.69166565 C63.13839944 90.38119052 63.13839944 90.38119052 65.46166992 88.5592041 C67.6161219 85.3979913 67.59258541 83.34189056 67.6027832 79.52832031 C67.60979248 78.86931229 67.61680176 78.21030426 67.62402344 77.53132629 C67.64158712 75.35940046 67.62998959 73.18878408 67.61645508 71.0168457 C67.61915018 69.50517019 67.62303276 67.99349637 67.62805176 66.48182678 C67.63394426 63.31681785 67.62539125 60.15226101 67.60668945 56.98730469 C67.58387977 52.92931943 67.59703618 48.87239118 67.62097931 44.81444454 C67.63542778 41.69430055 67.63083618 38.57440758 67.62046814 35.45425606 C67.6177992 33.95792071 67.62107656 32.4615626 67.63038635 30.96525383 C67.6405394 28.87498385 67.62507344 26.78643098 67.6027832 24.69628906 C67.59960083 23.50700302 67.59641846 22.31771698 67.59313965 21.09239197 C67.33624772 18.14234685 67.33624772 18.14234685 65.46166992 16.2947998 C62.35455161 14.8333306 59.97874659 14.78881927 56.54418945 14.77294922 C55.89654129 14.76608597 55.24889313 14.75922272 54.58161926 14.75215149 C52.447173 14.73389446 50.31346244 14.73771855 48.17895508 14.7434082 C46.69209555 14.73884622 45.20523814 14.7335406 43.71838379 14.7275238 C40.60473047 14.7185952 37.49133368 14.72101323 34.37768555 14.73095703 C30.38933269 14.74245378 26.40186429 14.72222429 22.41362762 14.69303989 C19.34407945 14.67468747 16.27474369 14.67496823 13.20515442 14.68067741 C11.73475401 14.68083071 10.26433928 14.6747794 8.79399109 14.66238594 C6.73750401 14.64749232 4.68265674 14.65813722 2.6262207 14.67529297 C1.45692017 14.67545914 0.28761963 14.67562531 -0.91711426 14.67579651 C-3.97065308 14.96976353 -3.97065308 14.96976353 -6.29125977 16.80627441 Z " fill="#080708" transform="translate(96.914794921875,180.822998046875)"/>
<path d="M0 0 C0.66741714 -0.00671722 1.33483429 -0.01343445 2.0224762 -0.02035522 C4.21989481 -0.03928625 6.41700694 -0.0432575 8.61450195 -0.04541016 C10.15281801 -0.05184371 11.69113287 -0.05857248 13.22944641 -0.06558228 C16.45312329 -0.0775444 19.67669313 -0.08126443 22.90039062 -0.08007812 C27.00802409 -0.0798755 31.11496127 -0.10712271 35.22243023 -0.14162254 C38.40113908 -0.16399401 41.57968343 -0.16791248 44.75846291 -0.16685867 C46.27136435 -0.16920136 47.78427126 -0.17794888 49.29709435 -0.19352341 C68.11347673 -0.36903344 68.11347673 -0.36903344 75.0945282 6.06997681 C79.85754312 11.2872181 81.41337816 15.27740673 81.45581055 22.41064453 C81.46252777 23.12014252 81.469245 23.8296405 81.47616577 24.56063843 C81.49514043 26.90296464 81.49907008 29.24500407 81.5012207 31.58740234 C81.50765055 33.22161984 81.51437906 34.85583618 81.52139282 36.49005127 C81.53336535 39.91640896 81.53707383 43.34266584 81.53588867 46.76904297 C81.53568584 51.14480383 81.56295086 55.51991264 81.59743309 59.89551926 C81.61975168 63.27230759 81.62372465 66.64894046 81.62266922 70.02579498 C81.62501915 71.63803599 81.63380824 73.25028168 81.64933395 74.86244965 C81.7981968 91.92173709 81.7981968 91.92173709 75.41918945 99.31396484 C74.86102539 99.75998047 74.30286133 100.20599609 73.7277832 100.66552734 C72.8944043 101.35775391 72.8944043 101.35775391 72.04418945 102.06396484 C67.46582616 105.05275086 63.51894278 105.54515908 58.09936523 105.56518555 C57.40762207 105.57029648 56.71587891 105.57540741 56.00317383 105.58067322 C53.72639201 105.59452314 51.44991453 105.59361579 49.1730957 105.59130859 C47.58275237 105.59519842 45.99241006 105.59953368 44.40206909 105.60429382 C41.07164134 105.61174641 37.74131961 105.61147202 34.41088867 105.60620117 C30.15510475 105.60041168 25.89975677 105.61732937 21.64404488 105.64054585 C18.35994961 105.65532035 15.0759584 105.65614978 11.79183578 105.65303612 C10.22343966 105.65354759 8.65503745 105.65875255 7.08667374 105.66884804 C4.8874962 105.68126604 2.68915564 105.67438936 0.48999023 105.6628418 C-0.75845673 105.66347122 -2.00690369 105.66410065 -3.29318237 105.66474915 C-9.73288924 104.9842874 -15.51498328 102.23270949 -19.8347168 97.29052734 C-24.96744287 89.65493945 -24.42003283 80.98272676 -24.3659668 72.16162109 C-24.36866677 70.60180927 -24.37255338 69.0419991 -24.37756348 67.48219299 C-24.38343313 64.22681518 -24.37497713 60.97187888 -24.35620117 57.71655273 C-24.33339349 53.56168512 -24.34656145 49.40785025 -24.37049103 45.25302029 C-24.38500192 42.03660922 -24.38031931 38.82043974 -24.36997986 35.60402107 C-24.36732813 34.0727431 -24.37052713 32.54144256 -24.37989807 31.01019096 C-24.42457208 21.66214604 -24.30641483 14.39341933 -17.86987305 7.04833984 C-17.21889648 6.50951172 -16.56791992 5.97068359 -15.8972168 5.41552734 C-15.24881836 4.86123047 -14.60041992 4.30693359 -13.93237305 3.73583984 C-9.38587012 0.60324006 -5.46963409 0.03468275 0 0 Z M-8.8347168 20.29052734 C-9.57846999 23.41535496 -9.57846999 23.41535496 -9.46582031 26.85327148 C-9.47835342 28.16135269 -9.49088654 29.4694339 -9.50379944 30.81715393 C-9.49153206 32.23667398 -9.47811218 33.65618448 -9.46362305 35.07568359 C-9.46445218 36.538693 -9.46691325 38.0017023 -9.47093201 39.46470642 C-9.47378599 42.52550413 -9.45912771 45.58556844 -9.43164062 48.64624023 C-9.39752689 52.56626473 -9.40358906 56.4849809 -9.4223032 60.4050684 C-9.43287861 63.42405576 -9.42393126 66.4427394 -9.40891838 69.46169853 C-9.40374202 70.90695735 -9.40421178 72.35224795 -9.41046333 73.79750252 C-9.41592213 75.81743609 -9.39267582 77.83738551 -9.36816406 79.85717773 C-9.36196548 81.00569717 -9.35576691 82.15421661 -9.34938049 83.33753967 C-9.03418383 86.34912111 -9.03418383 86.34912111 -7.21691895 88.66125488 C-4.05343886 90.82487101 -2.00610394 90.79170294 1.81396484 90.79223633 C2.47297287 90.79763931 3.1319809 90.8030423 3.81095886 90.80860901 C5.98291334 90.82108697 8.15353986 90.80461552 10.32543945 90.78662109 C11.83711313 90.78677609 13.34878722 90.78826513 14.86045837 90.79103088 C18.0254782 90.79241438 21.19004458 90.77986432 24.35498047 90.75708008 C28.41283254 90.72867074 32.46993268 90.73143974 36.52784061 90.74417019 C39.64796886 90.75112255 42.76792308 90.74334368 45.8880291 90.73091316 C47.38435639 90.72639602 48.88070234 90.72606416 50.37703133 90.72997856 C52.46707646 90.73288721 54.55608227 90.71640355 56.64599609 90.69458008 C58.42992516 90.6864756 58.42992516 90.6864756 60.24989319 90.6782074 C63.10549334 90.49272742 63.10549334 90.49272742 65.04748535 89.17272949 C66.71836394 86.35922322 66.55453867 84.0283638 66.56933594 80.77124023 C66.57963081 79.78535667 66.57963081 79.78535667 66.59013367 78.77955627 C66.60843282 76.60721219 66.60455997 74.43558821 66.59887695 72.26318359 C66.60343751 70.75247462 66.6087427 69.24176772 66.61476135 67.73106384 C66.62369869 64.56435724 66.62126269 61.39790274 66.61132812 58.23120117 C66.59984108 54.17444355 66.62004165 50.1185567 66.64924526 46.06191349 C66.66759904 42.94175189 66.66731647 39.82179925 66.66160774 36.70159721 C66.6614544 35.20607723 66.6675091 33.7105432 66.67989922 32.21507454 C66.6947921 30.12256535 66.68414755 28.031668 66.66699219 25.93920898 C66.66682602 24.74912735 66.66665985 23.55904572 66.66648865 22.332901 C66.3772043 19.24008987 66.3772043 19.24008987 64.53601074 16.9083252 C61.43733718 14.79377287 59.47164291 14.77726335 55.73193359 14.75708008 C54.42700455 14.74124374 53.1220755 14.72540741 51.77760315 14.70909119 C50.35604495 14.7129329 48.93448955 14.71797208 47.51293945 14.72412109 C46.0508942 14.71888461 44.58885234 14.71260804 43.1268158 14.70533752 C40.0643625 14.69493498 37.00237388 14.69949155 33.93994141 14.71411133 C30.02097917 14.73129129 26.10348419 14.70781542 22.18468571 14.67262173 C19.16566812 14.65062798 16.14700049 14.65209389 13.12792778 14.66038704 C11.68346994 14.66120566 10.23898618 14.65435914 8.79460335 14.63961601 C6.77247608 14.62214095 4.75013731 14.6400494 2.72802734 14.65942383 C1.57871231 14.66038559 0.42939728 14.66134735 -0.75474548 14.66233826 C-4.88215206 15.50416161 -6.34291396 16.93102914 -8.8347168 20.29052734 Z " fill="#080908" transform="translate(97.834716796875,325.70947265625)"/>
<path d="M0 0 C47.85 0 95.7 0 145 0 C145 9.57 145 19.14 145 29 C97.15 29 49.3 29 0 29 C0 19.43 0 9.86 0 0 Z " fill="#FF9932" transform="translate(198,82)"/>
<path d="M0 0 C0.06959428 9.28397193 0.12285903 18.56785367 0.15543652 27.8520298 C0.17107424 32.16332863 0.19227776 36.47444862 0.22631836 40.78564453 C0.25897959 44.94832485 0.27686726 49.11083345 0.28463173 53.27363205 C0.29016312 54.85961992 0.30096466 56.44559869 0.31719017 58.03151321 C0.33905491 60.25770427 0.34196323 62.48319103 0.34057617 64.70947266 C0.35056892 66.60809555 0.35056892 66.60809555 0.36076355 68.54507446 C-0.151255 73.44852426 -1.39729211 76.66276816 -5.22172546 79.85371399 C-8.68764553 81.28371511 -11.76680832 81.39875031 -15.45239258 81.34057617 C-16.1846405 81.34101425 -16.91688843 81.34145233 -17.67132568 81.34190369 C-20.07933695 81.33982217 -22.48664239 81.3165221 -24.89453125 81.29296875 C-26.56889974 81.28737051 -28.24327315 81.28310149 -29.91764832 81.28010559 C-34.3153958 81.26867474 -38.71284403 81.23922285 -43.11047363 81.20599365 C-47.6016027 81.17525473 -52.09278033 81.1615921 -56.58398438 81.14648438 C-65.38945994 81.11435133 -74.1946927 81.06317645 -83 81 C-79.50906708 70.12511892 -72.30642681 63.06243931 -64.06005859 55.55102539 C-56.59144144 48.72444131 -49.48635576 41.55096901 -42.37527466 34.35614014 C-36.95164589 28.86885058 -31.53107941 23.45873616 -25.65429688 18.44921875 C-23.36314303 16.44209224 -21.32018007 14.23168348 -19.25 12 C-14.63866275 7.31705813 -6.99390462 0 0 0 Z " fill="#2196F2" transform="translate(125,34)"/>
<path d="M0 0 C0 3 0 3 -1 5 C0.01126953 5.33644531 0.01126953 5.33644531 1.04296875 5.6796875 C4.84188632 7.37590169 7.97159576 9.66835157 11.3125 12.125 C11.95767578 12.59292969 12.60285156 13.06085938 13.26757812 13.54296875 C14.84848894 14.6905929 16.42472301 15.84465477 18 17 C17.61070312 17.6084375 17.22140625 18.216875 16.8203125 18.84375 C14.07931864 23.13839475 11.34490639 27.43559642 8.66015625 31.765625 C4.33486595 38.73997153 -0.05406681 45.65618781 -4.6340332 52.46679688 C-8.73245424 58.57092649 -12.7547971 64.72412955 -16.7769165 70.87863159 C-25.91090755 84.85401621 -35.13923824 98.76423323 -44.42211914 112.64111328 C-45.6162958 114.42637321 -46.80859347 116.21289021 -48 118 C-51.15078327 115.88226772 -54.29474075 113.75461813 -57.4375 111.625 C-58.33533203 111.02171875 -59.23316406 110.4184375 -60.15820312 109.796875 C-61.01220703 109.21679688 -61.86621094 108.63671875 -62.74609375 108.0390625 C-63.53685303 107.50490723 -64.3276123 106.97075195 -65.14233398 106.42041016 C-67 105 -67 105 -68 103 C-67.22167969 101.3972168 -67.22167969 101.3972168 -65.921875 99.44921875 C-65.43041992 98.70333496 -64.93896484 97.95745117 -64.43261719 97.18896484 C-63.59972168 95.95073975 -63.59972168 95.95073975 -62.75 94.6875 C-61.54158088 92.86073383 -60.33325302 91.03390729 -59.125 89.20703125 C-58.46242188 88.2113916 -57.79984375 87.21575195 -57.1171875 86.18994141 C-53.70550567 81.04960068 -50.33372615 75.88323796 -46.9571228 70.71981812 C-45.3278223 68.2297955 -43.69585518 65.74152585 -42.06388855 63.25325012 C-38.5817053 57.9438599 -35.10474873 52.63114729 -31.63671875 47.3125 C-24.14180269 35.82000689 -16.60539807 24.35710689 -9 12.9375 C-8.60215302 12.33943542 -8.20430603 11.74137085 -7.79440308 11.12518311 C-6.67677499 9.44584435 -5.55718692 7.76781049 -4.4375 6.08984375 C-3.79683594 5.12941162 -3.15617187 4.16897949 -2.49609375 3.17944336 C-1 1 -1 1 0 0 Z " fill="#E8C638" transform="translate(406,222)"/>
<path d="M0 0 C0.64446579 -0.00073013 1.28893158 -0.00146027 1.95292664 -0.00221252 C4.06934719 0.00125304 6.18352778 0.04005668 8.29956055 0.0793457 C9.77213845 0.08867771 11.24473193 0.095792 12.71733093 0.1007843 C16.58272583 0.11982421 20.44717296 0.16889707 24.31219482 0.2243042 C28.26032695 0.27556282 32.20861306 0.29831233 36.15698242 0.32348633 C43.89634559 0.37702046 51.63492936 0.46229456 59.3737793 0.56762695 C59.3737793 0.89762695 59.3737793 1.22762695 59.3737793 1.56762695 C43.5337793 1.56762695 27.6937793 1.56762695 11.3737793 1.56762695 C11.3737793 10.14762695 11.3737793 18.72762695 11.3737793 27.56762695 C13.3537793 28.22762695 15.3337793 28.88762695 17.3737793 29.56762695 C19.2487793 31.69262695 19.2487793 31.69262695 20.3737793 33.56762695 C25.65891462 32.87387411 29.25242722 28.77951141 33.20581055 25.5012207 C36.94791425 23.21719933 39.063322 23.11905066 43.3737793 23.56762695 C45.8112793 24.56762695 45.8112793 24.56762695 47.3737793 26.56762695 C48.04831714 29.94031619 48.30536322 31.39552473 47.3737793 34.56762695 C45.16307523 37.49316946 42.33844343 39.44388058 39.3737793 41.56762695 C38.19265182 42.43071953 37.01167227 43.29401457 35.83081055 44.1574707 C21.91971087 54.24672061 21.91971087 54.24672061 16.3737793 53.56762695 C15.0537793 52.24762695 13.7337793 50.92762695 12.3737793 49.56762695 C12.3737793 58.14762695 12.3737793 66.72762695 12.3737793 75.56762695 C9.1562793 75.65012695 5.9387793 75.73262695 2.6237793 75.81762695 C1.61605469 75.85404297 0.60833008 75.89045898 -0.42993164 75.92797852 C-1.63311035 75.94296387 -1.63311035 75.94296387 -2.8605957 75.95825195 C-3.67753906 75.97919922 -4.49448242 76.00014648 -5.33618164 76.02172852 C-8.55186691 75.38407664 -9.59691696 74.11599814 -11.6262207 71.56762695 C-12.1408844 68.61463928 -12.1408844 68.61463928 -12.15966797 65.13427734 C-12.1755043 63.8293483 -12.19134064 62.52441925 -12.20765686 61.1799469 C-12.20381515 59.7583887 -12.19877597 58.3368333 -12.19262695 56.9152832 C-12.19786344 55.45323795 -12.20414001 53.99119609 -12.21141052 52.52915955 C-12.22181307 49.46670625 -12.21725649 46.40471763 -12.20263672 43.34228516 C-12.18545676 39.42332292 -12.20893262 35.50582794 -12.24412632 31.58702946 C-12.26612007 28.56801187 -12.26465415 25.54934424 -12.25636101 22.53027153 C-12.25554239 21.08581369 -12.26238891 19.64132993 -12.27713203 18.1969471 C-12.2946071 16.17481983 -12.27669865 14.15248106 -12.25732422 12.13037109 C-12.25636246 10.98105606 -12.2554007 9.83174103 -12.25440979 8.64759827 C-10.85329192 1.77800607 -6.53543401 -0.06248025 0 0 Z " fill="#51B751" transform="translate(100.626220703125,340.432373046875)"/>
<path d="M0 0 C1.33417969 0.01933594 1.33417969 0.01933594 2.6953125 0.0390625 C4.07589844 0.08933594 4.07589844 0.08933594 5.484375 0.140625 C6.42023438 0.15867188 7.35609375 0.17671875 8.3203125 0.1953125 C10.62604515 0.24236827 12.92968445 0.30808787 15.234375 0.390625 C15.2029541 1.15205811 15.1715332 1.91349121 15.13916016 2.69799805 C15.01421417 6.15773649 14.9363296 9.61700039 14.859375 13.078125 C14.80910156 14.27630859 14.75882813 15.47449219 14.70703125 16.70898438 C14.37028679 22.80971631 14.37028679 22.80971631 16.56152344 28.26806641 C18.34907454 29.79046977 18.34907454 29.79046977 21.234375 31.390625 C21.564375 32.050625 21.894375 32.710625 22.234375 33.390625 C27.28185778 31.68933192 31.1890137 28.6478868 35.33007812 25.40429688 C38.28189897 23.23497055 39.81633391 22.36979733 43.52734375 22.5546875 C47.76729996 23.86399577 47.76729996 23.86399577 49.234375 26.390625 C50.37827744 31.12964939 50.37827744 31.12964939 49.234375 34.390625 C46.44978436 37.45747434 43.28491149 39.83460399 39.90332031 42.21435547 C38.18717191 43.42389365 36.50393497 44.67145852 34.8203125 45.92578125 C24.73911832 53.27046689 24.73911832 53.27046689 19.234375 53.390625 C17.914375 52.400625 16.594375 51.410625 15.234375 50.390625 C14.904375 58.310625 14.574375 66.230625 14.234375 74.390625 C30.074375 74.390625 45.914375 74.390625 62.234375 74.390625 C62.234375 74.720625 62.234375 75.050625 62.234375 75.390625 C53.56785564 75.50648896 44.90160295 75.59532427 36.234478 75.64968586 C32.20991404 75.67577731 28.18588003 75.71116557 24.16162109 75.76782227 C20.2777206 75.82216052 16.39432971 75.85204894 12.51007843 75.86501122 C11.02844469 75.87424806 9.54683876 75.89228611 8.06542206 75.91927528 C5.9892915 75.955594 3.91526444 75.96056981 1.83886719 75.95825195 C0.65750183 75.96935501 -0.52386353 75.98045807 -1.74102783 75.99189758 C-4.765625 75.390625 -4.765625 75.390625 -7.14605713 73.26531982 C-9.07319968 69.84468719 -9.27236831 67.74087717 -9.28320312 63.82788086 C-9.29581177 62.51979965 -9.30842041 61.21171844 -9.32141113 59.86399841 C-9.31425186 58.44448302 -9.30604801 57.02497256 -9.296875 55.60546875 C-9.29957129 54.14245852 -9.30345486 52.67945004 -9.30847168 51.21644592 C-9.31435853 48.15576046 -9.30582948 45.09554303 -9.28710938 42.03491211 C-9.26429921 38.11492465 -9.27745979 34.19603145 -9.30139923 30.27608395 C-9.31586248 27.25712354 -9.31124935 24.23842208 -9.30088806 21.21945381 C-9.29822324 19.77418449 -9.30148201 18.32889152 -9.31080627 16.88364983 C-9.32098067 14.86376276 -9.30271926 12.84379302 -9.28320312 10.82397461 C-9.28002075 9.67545517 -9.27683838 8.52693573 -9.27355957 7.34361267 C-8.3452855 1.94689023 -5.29287225 -0.13571467 0 0 Z " fill="#EB3B4D" transform="translate(97.765625,195.609375)"/>
<path d="M0 0 C1.19452789 -0.0112793 2.38905579 -0.02255859 3.61978149 -0.03417969 C4.92692108 -0.02608276 6.23406067 -0.01798584 7.58081055 -0.00964355 C8.97391491 -0.01506481 10.36701355 -0.02218749 11.76010132 -0.03088379 C15.54114715 -0.04912014 19.32175644 -0.04204862 23.10280991 -0.02936745 C27.05943733 -0.01924127 31.01602736 -0.02863206 34.97265625 -0.03491211 C41.6171744 -0.04218965 48.26151471 -0.0325981 54.90600586 -0.0135498 C62.58829023 0.00821927 70.27014997 0.00116797 77.95242405 -0.02085543 C84.54787869 -0.03900648 91.14320548 -0.04156924 97.73867702 -0.03110075 C101.67803851 -0.02486414 105.6172004 -0.02403463 109.55654907 -0.0372467 C113.26015731 -0.04880045 116.96321804 -0.04078895 120.66676712 -0.01766968 C122.67459612 -0.00985623 124.68247142 -0.02174257 126.6902771 -0.03417969 C128.48206894 -0.01726074 128.48206894 -0.01726074 130.31005859 0 C131.34833298 0.0015081 132.38660736 0.0030162 133.4563446 0.00457001 C136.86780928 0.64088385 138.05109016 1.79669172 140.1550293 4.50793457 C140.88200863 8.30438218 140.54328477 9.90299505 138.45361328 13.15890503 C134.03884092 17.29551548 127.45835061 16.19941483 121.81518555 16.15490723 C120.44325602 16.16168613 119.07133561 16.17059081 117.69943237 16.18145752 C113.98027555 16.20422586 110.26181325 16.19542535 106.5426445 16.17956209 C102.64787698 16.16689003 98.75316833 16.17864682 94.85839844 16.18649292 C88.31816955 16.19558573 81.7782231 16.18361145 75.23803711 16.15979004 C67.68006665 16.13257918 60.1227706 16.14139363 52.56481647 16.16892207 C46.07206359 16.19162284 39.57951357 16.19480858 33.08673382 16.18172872 C29.21047094 16.17393942 25.33452491 16.17287794 21.45828247 16.18941116 C17.81363533 16.20387111 14.16985637 16.19380803 10.52530289 16.16493988 C8.5522709 16.15519084 6.57916536 16.1700164 4.60617065 16.18557739 C-5.03656746 16.07013006 -5.03656746 16.07013006 -8.14355469 13.15890503 C-10.23322618 9.90299505 -10.57195003 8.30438218 -9.8449707 4.50793457 C-6.84147659 0.63747948 -4.82467758 0.00700789 0 0 Z " fill="#0A0B0B" transform="translate(222.844970703125,206.4920654296875)"/>
<path d="M0 0 C4.92441762 3.71535344 8.28438508 9.11096774 10.21484375 14.90234375 C11.13797117 25.74616963 10.83326174 33.80947219 4.21484375 42.90234375 C3.35632813 44.11277344 3.35632813 44.11277344 2.48046875 45.34765625 C1.09815134 47.23682338 -0.32541535 49.07324952 -1.78515625 50.90234375 C-9.60332112 46.823855 -16.86356807 41.95567019 -24.16015625 37.02734375 C-26.47922277 35.46558932 -28.79971139 33.90596611 -31.12109375 32.34765625 C-31.6806073 31.97175354 -32.24012085 31.59585083 -32.81658936 31.20855713 C-38.08195275 27.6818748 -43.41881655 24.27279121 -48.78515625 20.90234375 C-45.52373396 10.64025503 -39.38367981 2.87935596 -29.78515625 -2.09765625 C-19.61820235 -7.31045845 -9.58933114 -5.89628457 0 0 Z " fill="#2195F0" transform="translate(463.78515625,189.09765625)"/>
<path d="M0 0 C2.22893301 15.5623701 2.22893301 15.5623701 -2.59277344 22.11035156 C-6.04891792 26.1080517 -9.93793668 29.611972 -13.875 33.125 C-15.21102221 34.38771776 -16.54309559 35.65462729 -17.87109375 36.92578125 C-27.47034868 46 -27.47034868 46 -30 46 C-30 46.66 -30 47.32 -30 48 C-31.3984375 49.33984375 -31.3984375 49.33984375 -33.375 50.9375 C-43.81160179 59.91740295 -49.95028283 68.78853387 -56 81 C-64.91 81 -73.82 81 -83 81 C-79.35741691 70.07225073 -72.37985336 63.12932175 -64.06005859 55.55102539 C-56.59144144 48.72444131 -49.48635576 41.55096901 -42.37527466 34.35614014 C-36.95164589 28.86885058 -31.53107941 23.45873616 -25.65429688 18.44921875 C-23.36314303 16.44209224 -21.32018007 14.23168348 -19.25 12 C-14.63866275 7.31705813 -6.99390462 0 0 0 Z " fill="#0E86D9" transform="translate(125,34)"/>
<path d="M0 0 C1.01682358 -0.0087616 2.03364716 -0.01752319 3.08128357 -0.02655029 C6.4393899 -0.04854058 9.79617737 -0.03399189 13.15429688 -0.01708984 C15.48930107 -0.02045806 17.82430356 -0.02531072 20.15930176 -0.03158569 C25.05184632 -0.03895657 29.94393431 -0.02824394 34.83642578 -0.00488281 C41.10817048 0.02360431 47.37884539 0.0072016 53.65055084 -0.02274513 C58.47186343 -0.04081183 63.29292233 -0.03506278 68.11424255 -0.02210617 C70.42671332 -0.01877046 72.73920712 -0.02286497 75.051651 -0.03450394 C78.28375259 -0.04720156 81.51412126 -0.02784872 84.74609375 0 C86.18008766 -0.01518173 86.18008766 -0.01518173 87.64305115 -0.03067017 C92.19226275 0.04195744 94.2518548 0.18818243 98.00598145 2.96084595 C99.87304688 5.64697266 99.87304688 5.64697266 99.87304688 9.27197266 C98.88750518 12.59817589 98.52231975 13.61498396 95.87304688 15.64697266 C93.84401798 16.02728939 93.84401798 16.02728939 91.47706604 16.03465271 C90.5784082 16.04455734 89.67975037 16.05446198 88.75386047 16.06466675 C87.27867195 16.05791428 87.27867195 16.05791428 85.77368164 16.05102539 C84.73603668 16.05788864 83.69839172 16.06475189 82.62930298 16.07182312 C79.19088146 16.09016111 75.75291317 16.08624351 72.31445312 16.08056641 C69.92935537 16.08512489 67.54425894 16.09042946 65.15916443 16.09645081 C60.15642975 16.10539573 55.15385458 16.10294306 50.15112305 16.09301758 C43.73365411 16.08152731 37.31673535 16.10173387 30.89933872 16.13093472 C25.97259511 16.14926309 21.04598415 16.14901092 16.11921501 16.1432972 C13.75288051 16.14314356 11.38653725 16.14922225 9.02023506 16.16158867 C5.71373917 16.17643261 2.40826996 16.16586927 -0.89819336 16.14868164 C-2.37034554 16.16318359 -2.37034554 16.16318359 -3.87223816 16.17797852 C-10.48017444 16.10589315 -10.48017444 16.10589315 -13.73109436 13.79920959 C-15.67918272 10.79550475 -15.77239581 9.1610495 -15.12695312 5.64697266 C-10.87435979 -0.27951815 -6.73741719 -0.07132922 0 0 Z " fill="#0B0B0B" transform="translate(228.126953125,244.35302734375)"/>
<path d="M0 0 C17.16 0 34.32 0 52 0 C52 9.57 52 19.14 52 29 C34.84 29 17.68 29 0 29 C0 19.43 0 9.86 0 0 Z " fill="#EE8525" transform="translate(198,82)"/>
<path d="M0 0 C3.6716145 1.34799473 6.76733396 3.00549692 10.02734375 5.16015625 C10.97859131 5.785271 11.92983887 6.41038574 12.90991211 7.05444336 C13.90901611 7.71710205 14.90812012 8.37976074 15.9375 9.0625 C17.99977003 10.41962037 20.06226971 11.77639181 22.125 13.1328125 C23.62740234 14.1232959 23.62740234 14.1232959 25.16015625 15.13378906 C28.90323897 17.59356591 32.66584183 20.02184154 36.4375 22.4375 C37.52933594 23.13746094 38.62117188 23.83742188 39.74609375 24.55859375 C40.48988281 25.03425781 41.23367188 25.50992187 42 26 C40.82425946 29.52722161 40.34417968 29.64413966 37.17041016 31.25244141 C36.35931793 31.66942291 35.54822571 32.08640442 34.71255493 32.51602173 C33.83030243 32.95675018 32.94804993 33.39747864 32.0390625 33.8515625 C31.13755463 34.31106293 30.23604675 34.77056335 29.30722046 35.24398804 C26.41773722 36.71357948 23.52141034 38.16911713 20.625 39.625 C18.67925221 40.61372718 16.73393395 41.60330014 14.7890625 42.59375 C11.2246071 44.40279824 7.66016349 46.21180809 4.08837891 48.00634766 C3.36969635 48.36814117 2.65101379 48.72993469 1.91055298 49.10269165 C0 50 0 50 -3 51 C-3.28970404 40.02343583 -2.79241795 29.13758028 -2.0625 18.1875 C-2.01893372 17.51716736 -1.97536743 16.84683472 -1.93048096 16.15618896 C-1.12238964 3.85582837 -1.12238964 3.85582837 0 0 Z " fill="#435864" transform="translate(332,341)"/>
<path d="M0 0 C1.30815674 -0.00938095 2.61631348 -0.0187619 3.96411133 -0.02842712 C5.38884129 -0.01794882 6.81356495 -0.00657981 8.23828125 0.00561523 C9.70271883 0.00546022 11.16715682 0.00397081 12.6315918 0.00120544 C15.6982643 -0.00017805 18.76446883 0.01237045 21.83105469 0.03515625 C25.75877979 0.06354135 29.6857275 0.06080321 33.61351013 0.04806614 C36.63674541 0.04110574 39.65980151 0.04890224 42.68301392 0.06132317 C44.13106601 0.0658342 45.57913735 0.06617749 47.02719116 0.06225777 C49.05201389 0.05934238 51.07683285 0.07802403 53.1015625 0.09765625 C54.25309814 0.10305923 55.40463379 0.10846222 56.59106445 0.11402893 C59.84027277 0.53962818 61.23077459 1.22743356 63.55078125 3.50170898 C64.24371118 6.20795503 64.03718317 8.76069112 63.55078125 11.50170898 C62.00740034 13.676473 60.91412852 14.32003535 58.55078125 15.50170898 C56.54559693 15.61875515 54.53654067 15.67146484 52.52807617 15.69458008 C50.63051826 15.71867447 50.63051826 15.71867447 48.69462585 15.74325562 C47.30684073 15.75474255 45.9190481 15.76535118 44.53125 15.77514648 C43.83324091 15.78047016 43.13523182 15.78579384 42.41607094 15.79127884 C38.72099531 15.81800463 35.02595339 15.83738067 31.33081055 15.85180664 C28.27419091 15.86514474 25.2182391 15.89299366 22.16186523 15.93383789 C18.47012643 15.98317283 14.77899324 16.00792845 11.08693886 16.01503372 C9.68150536 16.02174361 8.27608524 16.03695928 6.87084007 16.06092453 C4.90135467 16.09259408 2.93140501 16.08960982 0.96166992 16.08520508 C-0.71805656 16.09733536 -0.71805656 16.09733536 -2.43171692 16.10971069 C-6.4299894 15.3040918 -7.92824749 13.63738382 -10.44921875 10.50170898 C-11.01171875 7.43920898 -11.01171875 7.43920898 -10.44921875 4.50170898 C-7.32997253 0.38833427 -5.04989365 0.00072871 0 0 Z " fill="#070708" transform="translate(223.44921875,351.498291015625)"/>
<path d="M0 0 C2.30081929 1.53540729 4.02714987 3.02714987 6 5 C6 5.66 6 6.32 6 7 C5.31035156 7.21914062 4.62070312 7.43828125 3.91015625 7.6640625 C-11.1473611 12.74520004 -18.29306595 21.19720053 -27 34 C-31.79821659 32.37885498 -35.6672859 29.70723241 -39.8125 26.875 C-40.50537109 26.40707031 -41.19824219 25.93914062 -41.91210938 25.45703125 C-43.61091105 24.30887563 -45.30584864 23.15500633 -47 22 C-44.28230009 12.71338724 -38.56482974 5.08706169 -30.21484375 0.1484375 C-19.75123552 -5.27713714 -10.60812537 -5.66860307 0 0 Z " fill="#0D85D7" transform="translate(462,188)"/>
<path d="M0 0 C1.51176819 -0.01891296 1.51176819 -0.01891296 3.05407715 -0.03820801 C4.13644653 -0.03011108 5.21881592 -0.02201416 6.33398438 -0.01367188 C7.45083618 -0.01749878 8.56768799 -0.02132568 9.71838379 -0.02526855 C12.07870383 -0.02798943 14.43905394 -0.02061607 16.79931641 -0.00390625 C20.41442012 0.01749929 24.0275363 -0.00370366 27.64257812 -0.02929688 C29.93555127 -0.02665363 32.22852317 -0.02152873 34.52148438 -0.01367188 C35.60385376 -0.0217688 36.68622314 -0.02986572 37.8013916 -0.03820801 C38.80923706 -0.02559937 39.81708252 -0.01299072 40.85546875 0 C42.18306213 0.00477356 42.18306213 0.00477356 43.53747559 0.00964355 C46.71919533 0.68576509 47.92745118 2.0028021 49.92773438 4.51757812 C50.42773438 7.51757812 50.42773438 7.51757812 49.92773438 10.51757812 C48.06063527 12.82033369 46.57125696 14.19581683 43.92773438 15.51757812 C42.41273981 15.63248353 40.89294419 15.68700075 39.3737793 15.71044922 C37.95671944 15.73454361 37.95671944 15.73454361 36.5110321 15.75912476 C32.18859545 15.80355075 27.8663127 15.84463846 23.54370117 15.86767578 C21.26332395 15.88423909 18.98299871 15.91153378 16.70288086 15.94970703 C13.41688067 16.00444593 10.13209772 16.02634569 6.84570312 16.04101562 C5.82784225 16.063685 4.80998138 16.08635437 3.76127625 16.10971069 C-1.00045265 16.09548765 -3.30827539 16.08593328 -7.21948242 13.17626953 C-9.07226562 10.51757812 -9.07226562 10.51757812 -9.63476562 7.45507812 C-8.58096617 1.95190321 -5.39106406 0.01938437 0 0 Z " fill="#0B0B0C" transform="translate(222.072265625,390.482421875)"/>
<path d="M0 0 C4.23995621 1.30930827 4.23995621 1.30930827 5.70703125 3.8359375 C6.85093369 8.57496189 6.85093369 8.57496189 5.70703125 11.8359375 C2.92244061 14.90278684 -0.24243226 17.27991649 -3.62402344 19.65966797 C-5.34017184 20.86920615 -7.02340878 22.11677102 -8.70703125 23.37109375 C-18.95315246 30.8359375 -18.95315246 30.8359375 -24.29296875 30.8359375 C-28.4445204 28.33380292 -30.9174897 24.93975394 -33.60546875 20.9609375 C-34.30285156 19.95289063 -35.00023438 18.94484375 -35.71875 17.90625 C-37.45551769 14.51890657 -37.73793733 12.58638697 -37.29296875 8.8359375 C-35.73046875 6.4609375 -35.73046875 6.4609375 -33.29296875 4.8359375 C-29.85546875 4.2109375 -29.85546875 4.2109375 -26.29296875 4.8359375 C-24.17548157 6.66756391 -22.90085343 8.49719614 -21.29296875 10.8359375 C-16.24548597 9.13464442 -12.33833005 6.0931993 -8.19726562 2.84960938 C-5.24544478 0.68028305 -3.71100984 -0.18489017 0 0 Z " fill="#0B0707" transform="translate(141.29296875,218.1640625)"/>
<path d="M0 0 C2.4375 1 2.4375 1 4 3 C4.67453785 6.37268923 4.93158392 7.82789778 4 11 C1.78929593 13.92554251 -1.03533587 15.87625363 -4 18 C-5.18112748 18.86309258 -6.36210702 19.72638762 -7.54296875 20.58984375 C-20.29763494 29.84037158 -20.29763494 29.84037158 -23.75 30.625 C-28.90193991 29.63424233 -30.99108825 26.08402175 -34 22 C-34.52464844 21.31808594 -35.04929687 20.63617188 -35.58984375 19.93359375 C-38.07278339 16.41896174 -38.99032706 14.59004961 -39.0625 10.1875 C-38 7 -38 7 -36.375 5 C-32.84105826 3.51202453 -30.65063783 3.95696062 -27 5 C-24.5625 7.5625 -24.5625 7.5625 -23 10 C-17.71486468 9.30624715 -14.12135208 5.21188446 -10.16796875 1.93359375 C-6.42586505 -0.35042762 -4.31045729 -0.4485763 0 0 Z " fill="#070907" transform="translate(144,364)"/>
</svg>
